<svg width="97" height="44" viewBox="0 0 97 44" fill="none" xmlns="http://www.w3.org/2000/svg">
<path d="M22 0.707107L43.2929 22L22 43.2929L0.707107 22L22 0.707107Z" stroke="#1A1B1C"/>
<path d="M15.7144 22L25.1429 27.4436V16.5564L15.7144 22Z" fill="#1A1B1C"/>
<path opacity="0.7" d="M64.872 28C66.93 28 68.288 26.922 68.288 25.102C68.288 23.786 67.532 23.002 66.608 22.652C67.21 22.344 67.798 21.644 67.798 20.72C67.798 19.096 66.524 18.2 64.732 18.2H60.938V28H64.872ZM62.758 19.684H64.578C65.586 19.684 66.076 20.104 66.076 20.86C66.076 21.616 65.586 22.036 64.606 22.036H62.758V19.684ZM62.758 23.604H64.676C65.922 23.604 66.51 24.108 66.51 25.004C66.51 25.914 65.922 26.39 64.676 26.39H62.758V23.604ZM77.6856 28L73.9056 18.2H72.1696L68.4036 28H70.3076L71.1476 25.718H74.9276L75.7676 28H77.6856ZM73.0516 20.566L74.3676 24.15H71.7356L73.0516 20.566ZM82.4387 28.112C84.8467 28.112 86.6387 26.726 86.8347 24.696H84.9867C84.8187 25.76 83.7827 26.502 82.4387 26.502C80.7307 26.502 79.4427 25.326 79.4427 23.1C79.4427 20.874 80.7307 19.684 82.4387 19.684C83.7547 19.684 84.7907 20.426 84.9307 21.504H86.8627C86.5967 19.474 84.8047 18.088 82.4387 18.088C79.8767 18.088 77.5807 19.768 77.5807 23.1C77.5807 26.432 79.8347 28.112 82.4387 28.112ZM96.3629 28L92.4009 22.092L95.9989 18.2H93.6889L89.7549 22.47V18.2H87.8929V28H89.7549V24.948L91.1269 23.464L94.0669 28H96.3629Z" fill="#1A1B1C"/>
</svg>
