<svg width="150" height="44" viewBox="0 0 150 44" fill="none" xmlns="http://www.w3.org/2000/svg">
<path d="M22 0.707107L43.2929 22L22 43.2929L0.707107 22L22 0.707107Z" stroke="#1A1B1C"/>
<path d="M15.7144 22L25.1429 27.4436V16.5564L15.7144 22Z" fill="#1A1B1C"/>
<path opacity="0.7" d="M64.116 28C66.832 28 69.142 26.376 69.142 23.1C69.142 19.824 66.832 18.2 64.116 18.2H60.938V28H64.116ZM62.786 19.796H63.962C65.656 19.796 67.266 20.678 67.266 23.1C67.266 25.522 65.656 26.39 63.962 26.39H62.786V19.796ZM72.1723 28V18.2H70.3103V28H72.1723ZM76.9828 28.112C79.1388 28.112 80.6368 27.006 80.6368 25.186C80.6368 21.364 75.3028 22.988 75.3028 20.818C75.3028 20.132 75.9048 19.684 76.8708 19.684C77.9068 19.684 78.5788 20.258 78.6628 21.112H80.4268C80.3428 19.278 78.9428 18.088 76.8708 18.088C74.8828 18.088 73.4968 19.208 73.4968 20.818C73.4968 24.57 78.7608 23.114 78.7608 25.214C78.7608 26.082 78.0328 26.502 76.9828 26.502C75.8068 26.502 75.0788 25.802 74.9808 24.71H73.2028C73.3008 26.768 74.7568 28.112 76.9828 28.112ZM86.1099 28.112C88.5179 28.112 90.3099 26.726 90.5059 24.696H88.6579C88.4899 25.76 87.4539 26.502 86.1099 26.502C84.4019 26.502 83.1139 25.326 83.1139 23.1C83.1139 20.874 84.4019 19.684 86.1099 19.684C87.4259 19.684 88.4619 20.426 88.6019 21.504H90.5339C90.2679 19.474 88.4759 18.088 86.1099 18.088C83.5479 18.088 81.2519 19.768 81.2519 23.1C81.2519 26.432 83.5059 28.112 86.1099 28.112ZM96.0998 28.112C98.9418 28.112 101.042 25.984 101.042 23.1C101.042 20.216 98.9418 18.088 96.0998 18.088C93.2438 18.088 91.1438 20.216 91.1438 23.1C91.1438 25.984 93.2438 28.112 96.0998 28.112ZM96.0858 26.502C94.3078 26.502 93.0058 25.06 93.0058 23.1C93.0058 21.14 94.3078 19.684 96.0858 19.684C97.8778 19.684 99.1798 21.14 99.1798 23.1C99.1798 25.06 97.8778 26.502 96.0858 26.502ZM106.32 28L109.89 18.2H108.042L105.41 25.718L102.806 18.2H100.944L104.514 28H106.32ZM117.315 28V26.39H112.485V23.772H116.237V22.176H112.485V19.796H117.161V18.2H110.637V28H117.315ZM125.604 25.382C125.534 24.486 125.1 23.758 124.428 23.338C125.24 22.918 125.744 22.232 125.744 21.224C125.744 19.446 124.54 18.2 122.496 18.2H118.478V28H120.34V24.318H122.454C123.182 24.318 123.7 24.85 123.77 25.592L124.008 28H125.842L125.604 25.382ZM122.412 19.754C123.504 19.754 123.952 20.44 123.952 21.224C123.952 22.008 123.504 22.722 122.412 22.722H120.34V19.754H122.412ZM138.678 28L134.898 18.2H133.162L129.396 28H131.3L132.14 25.718H135.92L136.76 28H138.678ZM134.044 20.566L135.36 24.15H132.728L134.044 20.566ZM139.277 27.02C139.277 26.5907 139.394 26.292 139.627 26.124C139.861 25.9467 140.145 25.858 140.481 25.858C140.808 25.858 141.088 25.9467 141.321 26.124C141.555 26.292 141.671 26.5907 141.671 27.02C141.671 27.4307 141.555 27.7293 141.321 27.916C141.088 28.0933 140.808 28.182 140.481 28.182C140.145 28.182 139.861 28.0933 139.627 27.916C139.394 27.7293 139.277 27.4307 139.277 27.02ZM144.991 28V18.2H143.129V28H144.991ZM146.442 27.02C146.442 26.5907 146.559 26.292 146.792 26.124C147.025 25.9467 147.31 25.858 147.646 25.858C147.973 25.858 148.253 25.9467 148.486 26.124C148.719 26.292 148.836 26.5907 148.836 27.02C148.836 27.4307 148.719 27.7293 148.486 27.916C148.253 28.0933 147.973 28.182 147.646 28.182C147.31 28.182 147.025 28.0933 146.792 27.916C146.559 27.7293 146.442 27.4307 146.442 27.02Z" fill="#1A1B1C"/>
</svg>
