<svg width="123" height="44" viewBox="0 0 123 44" fill="none" xmlns="http://www.w3.org/2000/svg">
<path opacity="0.7" d="M3.37258 28V24.276H5.44458C7.48858 24.276 8.70658 23.016 8.70658 21.238C8.70658 19.46 7.48858 18.2 5.44458 18.2H1.51058V28H3.37258ZM3.37258 19.754H5.36058C6.45258 19.754 6.90058 20.454 6.90058 21.238C6.90058 22.022 6.45258 22.722 5.36058 22.722H3.37258V19.754ZM16.7511 25.382C16.6811 24.486 16.2471 23.758 15.5751 23.338C16.3871 22.918 16.8911 22.232 16.8911 21.224C16.8911 19.446 15.6871 18.2 13.6431 18.2H9.62511V28H11.4871V24.318H13.6011C14.3291 24.318 14.8471 24.85 14.9171 25.592L15.1551 28H16.9891L16.7511 25.382ZM13.5591 19.754C14.6511 19.754 15.0991 20.44 15.0991 21.224C15.0991 22.008 14.6511 22.722 13.5591 22.722H11.4871V19.754H13.5591ZM22.6171 28.112C25.4591 28.112 27.5591 25.984 27.5591 23.1C27.5591 20.216 25.4591 18.088 22.6171 18.088C19.7611 18.088 17.6611 20.216 17.6611 23.1C17.6611 25.984 19.7611 28.112 22.6171 28.112ZM22.6031 26.502C20.8251 26.502 19.5231 25.06 19.5231 23.1C19.5231 21.14 20.8251 19.684 22.6031 19.684C24.3951 19.684 25.6971 21.14 25.6971 23.1C25.6971 25.06 24.3951 26.502 22.6031 26.502ZM33.1493 28.112C35.5573 28.112 37.3493 26.726 37.5453 24.696H35.6973C35.5293 25.76 34.4933 26.502 33.1493 26.502C31.4413 26.502 30.1533 25.326 30.1533 23.1C30.1533 20.874 31.4413 19.684 33.1493 19.684C34.4653 19.684 35.5013 20.426 35.6413 21.504H37.5733C37.3073 19.474 35.5153 18.088 33.1493 18.088C30.5873 18.088 28.2913 19.768 28.2913 23.1C28.2913 26.432 30.5453 28.112 33.1493 28.112ZM45.2815 28V26.39H40.4515V23.772H44.2035V22.176H40.4515V19.796H45.1275V18.2H38.6035V28H45.2815ZM53.1226 28V26.39H48.2926V23.772H52.0446V22.176H48.2926V19.796H52.9686V18.2H46.4446V28H53.1226ZM57.4637 28C60.1797 28 62.4897 26.376 62.4897 23.1C62.4897 19.824 60.1797 18.2 57.4637 18.2H54.2857V28H57.4637ZM56.1337 19.796H57.3097C59.0037 19.796 60.6137 20.678 60.6137 23.1C60.6137 25.522 59.0037 26.39 57.3097 26.39H56.1337V19.796Z" fill="#1A1B1C"/>
<path d="M101 0.707107L122.293 22L101 43.2929L79.7071 22L101 0.707107Z" stroke="#1A1B1C"/>
<path d="M107.143 22L97.714 27.4436V16.5564L107.143 22Z" fill="#1A1B1C"/>
</svg>
