<svg width="170" height="80" viewBox="0 0 170 80" fill="none" xmlns="http://www.w3.org/2000/svg">
<path d="M5.43981 46V37.796H8.39381V36.2H0.62381V37.796H3.59181V46H5.43981ZM16.3104 46L12.5304 36.2H10.7944L7.02837 46H8.93237L9.77237 43.718H13.5524L14.3924 46H16.3104ZM11.6764 38.566L12.9924 42.15H10.3604L11.6764 38.566ZM25.4376 46L21.4756 40.092L25.0736 36.2H22.7636L18.8296 40.47V36.2H16.9676V46H18.8296V42.948L20.2016 41.464L23.1416 46H25.4376ZM32.8676 46V44.39H28.0376V41.772H31.7896V40.176H28.0376V37.796H32.7136V36.2H26.1896V46H32.8676ZM40.8172 46V37.796H43.7712V36.2H36.0012V37.796H38.9692V46H40.8172ZM51.0725 46V44.39H46.2425V41.772H49.9945V40.176H46.2425V37.796H50.9185V36.2H44.3945V46H51.0725ZM55.4556 46.112C57.6116 46.112 59.1096 45.006 59.1096 43.186C59.1096 39.364 53.7756 40.988 53.7756 38.818C53.7756 38.132 54.3776 37.684 55.3436 37.684C56.3796 37.684 57.0516 38.258 57.1356 39.112H58.8996C58.8156 37.278 57.4156 36.088 55.3436 36.088C53.3556 36.088 51.9696 37.208 51.9696 38.818C51.9696 42.57 57.2336 41.114 57.2336 43.214C57.2336 44.082 56.5056 44.502 55.4556 44.502C54.2796 44.502 53.5516 43.802 53.4536 42.71H51.6756C51.7736 44.768 53.2296 46.112 55.4556 46.112ZM63.9166 46V37.796H66.8706V36.2H59.1006V37.796H62.0686V46H63.9166Z" fill="#1A1B1C"/>
<path d="M91 40L130 1.00012L169 40L130 79L91 40Z" stroke="#1A1B1C"/>
<path d="M130 1L169 39.9999L130 78.9998L91 39.9999L110.5 20.5" stroke="#1A1B1C"/>
<path d="M100.503 40.0105L100.493 40.0001L100.503 39.9897L100.16 39.6465L102.208 37.5983L102.562 37.9519L103.248 37.2657L102.895 36.9121L104.953 34.8535L105.307 35.207L105.993 34.5208L105.639 34.1672L107.698 32.1086L108.052 32.4621L108.738 31.7759L108.384 31.4224L110.443 29.3637L110.797 29.7173L111.483 29.0311L111.129 28.6775L113.188 26.6189L113.541 26.9724L114.228 26.2862L113.874 25.9326L115.933 23.874L116.286 24.2275L116.973 23.5413L116.619 23.1878L118.678 21.1291L119.031 21.4827L119.717 20.7964L119.364 20.4429L121.423 18.3842L121.776 18.7378L122.462 18.0516L122.109 17.698L124.167 15.6394L124.521 15.9929L125.207 15.3067L124.854 14.9532L126.912 12.8945L127.266 13.2481L127.952 12.5618L127.598 12.2083L129.647 10.1601L129.99 10.5032L130 10.4927L130.011 10.5032L130.354 10.1601L132.402 12.2083L132.048 12.5618L132.735 13.2481L133.088 12.8945L135.147 14.9532L134.793 15.3067L135.48 15.9929L135.833 15.6394L137.892 17.698L137.538 18.0516L138.224 18.7378L138.578 18.3842L140.637 20.4429L140.283 20.7964L140.969 21.4827L141.323 21.1291L143.381 23.1878L143.028 23.5413L143.714 24.2275L144.068 23.874L146.126 25.9326L145.773 26.2862L146.459 26.9724L146.813 26.6189L148.871 28.6775L148.518 29.0311L149.204 29.7173L149.557 29.3637L151.616 31.4224L151.263 31.7759L151.949 32.4621L152.302 32.1086L154.361 34.1672L154.007 34.5208L154.694 35.207L155.047 34.8535L157.106 36.9121L156.752 37.2657L157.438 37.9519L157.792 37.5983L159.84 39.6465L159.497 39.9897L159.508 40.0001L159.497 40.0105L159.84 40.3537L157.792 42.4019L157.438 42.0483L156.752 42.7345L157.106 43.0881L155.047 45.1467L154.694 44.7932L154.007 45.4794L154.361 45.833L152.302 47.8916L151.949 47.538L151.263 48.2243L151.616 48.5778L149.557 50.6365L149.204 50.2829L148.518 50.9691L148.871 51.3227L146.813 53.3813L146.459 53.0278L145.773 53.714L146.126 54.0676L144.068 56.1262L143.714 55.7727L143.028 56.4589L143.381 56.8124L141.323 58.8711L140.969 58.5175L140.283 59.2038L140.637 59.5573L138.578 61.616L138.224 61.2624L137.538 61.9486L137.892 62.3022L135.833 64.3608L135.48 64.0073L134.793 64.6935L135.147 65.047L133.088 67.1057L132.735 66.7521L132.048 67.4384L132.402 67.7919L130.354 69.8401L130.011 69.497L130 69.5075L129.99 69.497L129.647 69.8401L127.598 67.7919L127.952 67.4384L127.266 66.7521L126.912 67.1057L124.854 65.047L125.207 64.6935L124.521 64.0073L124.167 64.3608L122.109 62.3022L122.462 61.9486L121.776 61.2624L121.423 61.616L119.364 59.5573L119.717 59.2038L119.031 58.5175L118.678 58.8711L116.619 56.8124L116.973 56.4589L116.286 55.7727L115.933 56.1262L113.874 54.0676L114.228 53.714L113.541 53.0278L113.188 53.3813L111.129 51.3227L111.483 50.9691L110.797 50.2829L110.443 50.6365L108.384 48.5778L108.738 48.2243L108.052 47.538L107.698 47.8916L105.639 45.8329L105.993 45.4794L105.307 44.7932L104.953 45.1467L102.895 43.0881L103.248 42.7345L102.562 42.0483L102.208 42.4019L100.16 40.3537L100.503 40.0105Z" stroke="#1A1B1C" stroke-dasharray="1 3"/>
<path d="M134.516 40L126.968 35.642L126.968 44.3581L134.516 40Z" fill="#1A1B1C"/>
</svg>
